<svg width="176" height="35" viewBox="0 0 176 35" fill="none" xmlns="http://www.w3.org/2000/svg">
<path d="M18.9943 24.8169C18.7246 24.9967 18.2415 25.2439 17.5449 25.5584C16.8708 25.8506 16.0506 26.109 15.0844 26.3337C14.1406 26.5809 13.1069 26.7045 11.9834 26.7045C10.7026 26.7045 9.36555 26.5134 7.97237 26.1314C6.60165 25.7494 5.32082 25.1203 4.12987 24.2439C2.93892 23.3675 1.97267 22.1878 1.23114 20.7048C0.489603 19.2217 0.118835 17.3791 0.118835 15.177C0.118835 13.7613 0.276131 12.3793 0.590721 11.0311C0.905312 9.68285 1.38843 8.42449 2.04008 7.25601C2.71421 6.06506 3.55686 5.03141 4.56805 4.15505C5.57923 3.25622 6.78141 2.55962 8.1746 2.06527C9.56779 1.54844 11.152 1.29003 12.9272 1.29003C14.7922 1.29003 16.4101 1.58215 17.7808 2.16639C19.1516 2.72815 20.2414 3.31239 21.0503 3.9191L18.5561 8.40202C18.0617 7.95261 17.3764 7.46948 16.5 6.95266C15.6237 6.43583 14.59 6.13247 13.3991 6.04259C12.1856 5.97518 11.0733 6.14371 10.0621 6.54818C9.07343 6.93019 8.21954 7.51443 7.50048 8.3009C6.78142 9.08738 6.21965 10.0311 5.81517 11.1322C5.43317 12.2333 5.24217 13.4579 5.24217 14.8062C5.24217 15.8623 5.39946 16.8286 5.71405 17.7049C6.02864 18.5813 6.47806 19.334 7.0623 19.9632C7.66901 20.5924 8.39931 21.0868 9.2532 21.4463C10.1296 21.7834 11.107 21.9519 12.1856 21.9519C13.1519 21.9519 13.9833 21.8508 14.6799 21.6485C15.3765 21.4238 15.9607 21.1879 16.4326 20.9407C16.9045 20.6711 17.264 20.4576 17.5112 20.3003L18.9943 24.8169Z" fill="white"/>
<path d="M22.9108 26.2663H18.0908L32.4496 0.481079H32.7193L40.7413 26.2663H35.0787L30.1576 8.13237L34.0001 5.70553L22.9108 26.2663ZM26.8544 17.3004H34.3034L35.5169 21.4126H24.832L26.8544 17.3004Z" fill="white"/>
<path d="M63.8735 27.2775H63.7386L47.0204 10.2896L48.3686 11.0985L46.6159 26.2663H41.6611L44.8295 0.481079H45.0317L61.3455 17.4016L60.3343 16.9297L62.1207 1.45856H67.0418L63.8735 27.2775Z" fill="white"/>
<path d="M70.7677 1.45856H75.6551L73.1945 21.5474H84.8568L84.2838 26.2663H67.7341L70.7677 1.45856Z" fill="white"/>
<path d="M89.3525 2.90642L93.2484 12.4035L91.5878 26.2663H86.5319L89.3525 2.90642Z" fill="white"/>
<path d="M96.7282 18.5477L89.6837 1.45868H95.7171L100.537 14.3344L99.0877 14.4355L106.975 1.45868H113.008L101.616 18.5477L100.672 26.2664H95.7845L96.7282 18.5477Z" fill="black" fill-opacity="0.3"/>
<path d="M109.109 26.2664H104.289L118.648 0.481201H118.918L126.94 26.2664H121.277L116.356 8.13249L120.199 5.70565L109.109 26.2664ZM113.053 17.3006H120.502L121.716 21.4127H111.031L113.053 17.3006Z" fill="black" fill-opacity="0.3"/>
<path d="M138.444 1.45868C139.994 1.45868 141.342 1.66092 142.488 2.06539C143.657 2.44739 144.612 3.00916 145.353 3.7507C146.095 4.46976 146.612 5.34612 146.904 6.37977C147.218 7.39096 147.297 8.53697 147.14 9.8178C147.005 10.829 146.724 11.8402 146.297 12.8514C145.87 13.8625 145.263 14.7838 144.477 15.6153C143.69 16.4467 142.702 17.1208 141.511 17.6376C140.342 18.132 138.927 18.3792 137.264 18.3792H133.758L132.781 26.2664H127.894L130.927 1.45868H138.444ZM137.803 13.6603C138.792 13.6603 139.59 13.4581 140.196 13.0536C140.803 12.6266 141.252 12.1323 141.544 11.5705C141.837 10.9863 142.005 10.4582 142.05 9.98633C142.095 9.71668 142.095 9.37962 142.05 8.97515C142.028 8.5482 141.915 8.12126 141.713 7.69431C141.533 7.26737 141.207 6.90784 140.736 6.61572C140.264 6.3236 139.601 6.17754 138.747 6.17754H135.241L134.331 13.6603H137.803ZM142.016 16.6939L146.971 26.2664H141.275L136.152 16.8287L142.016 16.6939Z" fill="black" fill-opacity="0.3"/>
<path d="M151.371 1.45868H156.427L153.393 26.2664H148.337L151.371 1.45868Z" fill="black" fill-opacity="0.3"/>
<path d="M172.835 7.89655C171.959 7.31231 171.049 6.82919 170.105 6.44719C169.184 6.04271 168.296 5.81801 167.442 5.77306C166.903 5.75059 166.42 5.7843 165.993 5.87418C165.566 5.94159 165.184 6.07642 164.847 6.27866C164.532 6.45842 164.274 6.7056 164.072 7.02019C163.892 7.33478 163.78 7.70555 163.735 8.13249C163.667 8.71673 163.825 9.25603 164.207 9.75039C164.611 10.2223 165.15 10.6605 165.824 11.0649C166.521 11.4694 167.251 11.8402 168.015 12.1772C168.937 12.5817 169.813 13.0873 170.644 13.694C171.476 14.3007 172.128 15.0984 172.599 16.0871C173.071 17.0534 173.206 18.323 173.004 19.8959C172.892 20.8397 172.599 21.7273 172.128 22.5587C171.656 23.3901 171.015 24.1204 170.206 24.7496C169.42 25.3563 168.476 25.817 167.375 26.1316C166.274 26.4462 165.027 26.5585 163.634 26.4686C162.69 26.4012 161.746 26.2439 160.802 25.9967C159.859 25.7496 158.937 25.4125 158.038 24.9856C157.14 24.5361 156.286 23.9744 155.477 23.3003L158.106 19.6263C158.623 20.0757 159.207 20.4914 159.859 20.8734C160.51 21.2329 161.173 21.5251 161.847 21.7498C162.521 21.9745 163.15 22.1093 163.735 22.1542C164.319 22.1767 164.914 22.1318 165.521 22.0194C166.128 21.8846 166.656 21.6262 167.105 21.2442C167.555 20.8622 167.824 20.3116 167.914 19.5926C167.982 19.0982 167.869 18.6376 167.577 18.2106C167.285 17.7837 166.892 17.3904 166.397 17.0309C165.903 16.6714 165.341 16.3456 164.712 16.0534C163.993 15.7164 163.252 15.3344 162.488 14.9074C161.724 14.4805 161.016 13.9749 160.364 13.3906C159.735 12.8064 159.252 12.0873 158.915 11.2335C158.578 10.3796 158.488 9.36839 158.645 8.19991C158.825 6.76178 159.297 5.53712 160.061 4.52594C160.825 3.49228 161.825 2.71704 163.061 2.20021C164.296 1.66092 165.69 1.4025 167.24 1.42497C168.566 1.49239 169.701 1.67215 170.644 1.96427C171.611 2.23392 172.453 2.57098 173.172 2.97546C173.892 3.37993 174.554 3.81811 175.161 4.29L172.835 7.89655ZM161.443 30.6482C161.622 30.9403 161.881 31.1763 162.218 31.356C162.555 31.5358 162.937 31.6481 163.364 31.6931C163.723 31.7156 164.128 31.6369 164.577 31.4571C165.027 31.2774 165.274 30.9853 165.319 30.5808C165.364 30.3336 165.285 30.0752 165.083 29.8055C164.881 29.5584 164.409 29.4123 163.667 29.3674C163.308 29.3449 162.948 29.3561 162.589 29.4011C162.252 29.4685 161.926 29.5359 161.611 29.6033L161.24 27.345L163.398 26.1653H166.971L164.409 28.7269L163.701 27.5135C163.948 27.4686 164.184 27.4461 164.409 27.4461C164.656 27.4461 164.892 27.4349 165.117 27.4124C166.375 27.4573 167.397 27.7607 168.184 28.3225C168.993 28.8842 169.33 29.6932 169.195 30.7493C169.105 31.6032 168.768 32.2886 168.184 32.8054C167.622 33.3222 166.926 33.693 166.094 33.9177C165.263 34.1424 164.409 34.2323 163.532 34.1873C162.544 34.1199 161.757 33.9177 161.173 33.5806C160.589 33.2436 160.128 32.8616 159.791 32.4346L161.443 30.6482Z" fill="black" fill-opacity="0.3"/>
</svg>
