<svg width="45" height="46" viewBox="0 0 45 46" fill="none" xmlns="http://www.w3.org/2000/svg">
<path d="M22.6009 0.919922C10.4063 0.919922 0.520905 10.8053 0.520905 22.9999C0.520905 35.1945 10.4063 45.0799 22.6009 45.0799C34.7955 45.0799 44.6809 35.1945 44.6809 22.9999C44.6809 10.8053 34.7955 0.919922 22.6009 0.919922ZM31.5824 19.0071C31.5916 19.1957 31.5939 19.3843 31.5939 19.5683C31.5939 25.3183 27.2216 31.9446 19.2222 31.9446C16.8585 31.9486 14.5439 31.2697 12.5568 29.9896C12.8949 30.031 13.2422 30.0471 13.5941 30.0471C15.6319 30.0471 17.5064 29.3548 18.9945 28.1864C18.0877 28.1686 17.2089 27.8683 16.4809 27.3274C15.7528 26.7865 15.2116 26.0319 14.9327 25.1688C15.584 25.2927 16.2549 25.2667 16.8946 25.0929C15.9103 24.8939 15.0252 24.3605 14.3892 23.5833C13.7533 22.8062 13.4058 21.8329 13.4055 20.8287V20.7758C13.992 21.1001 14.6636 21.2979 15.3766 21.3209C14.4538 20.7067 13.8006 19.7631 13.5505 18.6831C13.3004 17.6032 13.4723 16.4685 14.0311 15.5111C15.1235 16.8543 16.4858 17.9531 18.0298 18.7364C19.5738 19.5197 21.2651 19.97 22.9942 20.0582C22.7744 19.1251 22.869 18.1456 23.2633 17.2718C23.6577 16.398 24.3296 15.679 25.1748 15.2265C26.0199 14.7741 26.9908 14.6135 27.9367 14.7698C28.8825 14.926 29.7501 15.3904 30.4048 16.0907C31.3781 15.8982 32.3115 15.5411 33.1648 15.035C32.8404 16.0427 32.1613 16.8984 31.2535 17.4431C32.1157 17.3393 32.9575 17.1075 33.7513 16.7554C33.1682 17.6292 32.4337 18.3917 31.5824 19.0071Z" fill="#131515"/>
</svg>
