<svg width="45" height="46" viewBox="0 0 45 46" fill="none" xmlns="http://www.w3.org/2000/svg">
<path d="M26.4878 22.6158L21.322 20.2054C20.8712 19.9961 20.5009 20.2307 20.5009 20.7298V25.27C20.5009 25.7691 20.8712 26.0037 21.322 25.7944L26.4855 23.384C26.9386 23.1724 26.9386 22.8274 26.4878 22.6158ZM22.8009 0.919922C10.6063 0.919922 0.720886 10.8053 0.720886 22.9999C0.720886 35.1945 10.6063 45.0799 22.8009 45.0799C34.9955 45.0799 44.8809 35.1945 44.8809 22.9999C44.8809 10.8053 34.9955 0.919922 22.8009 0.919922ZM22.8009 31.9699C11.4987 31.9699 11.3009 30.951 11.3009 22.9999C11.3009 15.0488 11.4987 14.0299 22.8009 14.0299C34.1031 14.0299 34.3009 15.0488 34.3009 22.9999C34.3009 30.951 34.1031 31.9699 22.8009 31.9699Z" fill="#131515"/>
</svg>
