<svg width="26" height="23" viewBox="0 0 26 23" fill="none" xmlns="http://www.w3.org/2000/svg">
<path d="M18.8219 0.331299C20.4703 0.331299 22.0559 0.982773 23.2224 2.15174C24.3902 3.31825 25.0429 4.89162 25.0429 6.53875V16.2494C25.0429 19.6789 22.2526 22.4569 18.8219 22.4569H6.67866C3.24797 22.4569 0.458923 19.6789 0.458923 16.2494V6.53875C0.458923 3.10929 3.23568 0.331299 6.67866 0.331299H18.8219ZM20.2121 6.72313C19.954 6.7096 19.7082 6.79688 19.5225 6.96897L13.9801 11.3941C13.2672 11.9853 12.2457 11.9853 11.5217 11.3941L5.99031 6.96897C5.60803 6.68625 5.07948 6.72313 4.76111 7.05501C4.42923 7.38689 4.39236 7.91545 4.67384 8.28421L4.83487 8.444L10.4277 12.8077C11.1161 13.3485 11.9507 13.6435 12.8247 13.6435C13.6962 13.6435 14.5455 13.3485 15.2326 12.8077L20.7776 8.37025L20.8759 8.27191C21.1697 7.91545 21.1697 7.39918 20.8624 7.04272C20.6915 6.85957 20.4567 6.74771 20.2121 6.72313Z" fill="#0E7164"/>
</svg>
