<?xml version="1.0" encoding="utf-8"?>
<!-- Svg Vector Icons : http://www.onlinewebfonts.com/icon -->
<!DOCTYPE svg PUBLIC "-//W3C//DTD SVG 1.1//EN" "http://www.w3.org/Graphics/SVG/1.1/DTD/svg11.dtd">
<svg version="1.1" xmlns="http://www.w3.org/2000/svg" xmlns:xlink="http://www.w3.org/1999/xlink" x="0px" y="0px" viewBox="0 0 1000 1000" enable-background="new 0 0 1000 1000" xml:space="preserve">
<metadata> Svg Vector Icons : http://www.onlinewebfonts.com/icon </metadata>
<g><g transform="translate(0.000000,511.000000) scale(0.100000,-0.100000)"><path d="M4714.9,4966.7c-175.6-65.9-317.1-168.3-490.3-358.6c-161-173.2-192.7-234.2-3046.7-5912.9C241.2-3165.9,219.2-3217.2,219.2-3566c0-541.5,309.8-961.1,853.8-1158.7l158.6-56.1l3683.4-7.3c3271.1-4.9,3702.9-2.4,3856.5,31.7c756.2,165.9,1153.8,812.3,961.1,1561.2C9696-3048.8,9278.9-2192.7,7856.7,676C6776.1,2849.4,5980.9,4420.3,5915,4515.5c-131.7,183-307.4,331.8-500.1,422C5232,5020.4,4902.7,5035,4714.9,4966.7z M5112.5,3959.3c36.6-43.9,370.8-695.2,741.6-1446.5C6227.2,1761.5,7027.3,149.1,7634.7-1073c605-1219.7,1117.2-2261.3,1136.7-2314.9c75.6-207.3,29.3-339-143.9-402.5c-48.8-19.5-1166-26.8-3627.3-26.8c-3224.8,0-3568.7,4.9-3659,39c-117.1,46.3-146.4,92.7-146.4,231.7c0,85.4,263.4,626.9,1734.4,3556.5c1875.8,3734.6,1956.3,3890.7,2029.5,3973.6C5024.7,4054.4,5032,4052,5112.5,3959.3z"/><path d="M4610,1554.1c-114.7-56.1-195.2-182.9-195.2-304.9c0-122,309.8-2363.7,341.5-2485.7c34.2-117.1,104.9-165.9,243.9-165.9c107.3,2.4,153.7,21.9,212.2,100c29.3,36.6,373.2,2405.2,373.2,2566.2c0,107.3-87.8,236.6-195.1,290.3c-68.3,34.1-148.8,43.9-390.3,43.9C4758.8,1598,4678.3,1588.3,4610,1554.1z"/><path d="M4766.1-1814.6c-119.5-56.1-261-214.7-297.6-341.5c-107.3-356.1,153.7-707.4,526.9-709.8c319.6,0,553.7,231.7,551.3,548.8C5544.2-1914.6,5132-1648.7,4766.1-1814.6z"/></g></g>
</svg>