<svg width="46" height="46" viewBox="0 0 46 46" fill="none" xmlns="http://www.w3.org/2000/svg">
<path fill-rule="evenodd" clip-rule="evenodd" d="M23 0C10.2975 0 0 10.2975 0 23C0 35.7025 10.2975 46 23 46C35.7025 46 46 35.7025 46 23C46 10.2975 35.7025 0 23 0ZM34.96 20.8091C34.96 19.9442 34.455 19.1972 33.7238 18.8469L25.3261 11.89C23.9581 10.7567 21.9774 10.7567 20.6094 11.89L12.1326 18.9124C12.1196 18.9232 12.1067 18.9341 12.0939 18.9452C11.4624 19.3257 11.04 20.0181 11.04 20.8091V31.6818C11.04 32.8828 12.0136 33.8564 13.2145 33.8564H32.7855C33.9864 33.8564 34.96 32.8828 34.96 31.6818V20.8091ZM12.5004 20.4035L21.825 13.016C22.4945 12.4857 23.4408 12.4857 24.1103 13.016L33.4349 20.4035L22.9676 26.2455L12.5004 20.4035Z" fill="#131515"/>
</svg>
