<svg width="47" height="46" viewBox="0 0 47 46" fill="none" xmlns="http://www.w3.org/2000/svg">
<path fill-rule="evenodd" clip-rule="evenodd" d="M28.9202 37.6379C27.2037 38.2856 25.3432 38.64 23.4 38.64C22.1107 38.64 20.8577 38.484 19.6591 38.1898C19.7327 38.0534 19.766 37.9007 19.766 37.7545C19.766 37.6066 19.7633 37.3396 19.7596 36.9913C19.7528 36.3371 19.743 35.3959 19.743 34.4165C15.12 35.2454 13.924 33.3187 13.556 32.3106C13.349 31.7953 12.452 30.2048 11.67 29.7791C11.026 29.4431 10.106 28.6142 11.647 28.5918C13.096 28.5694 14.131 29.8911 14.476 30.4288C16.132 33.1395 18.777 32.3778 19.835 31.9074C19.996 30.7424 20.479 29.9583 21.008 29.5103C16.914 29.0622 12.636 27.5164 12.636 20.6612C12.636 18.7122 13.349 17.0992 14.522 15.8446C14.338 15.3966 13.694 13.5596 14.706 11.0953C14.706 11.0953 16.247 10.6248 19.766 12.9323C21.238 12.5291 22.802 12.3274 24.366 12.3274C25.93 12.3274 27.494 12.5291 28.966 12.9323C31.3108 11.3799 32.7774 11.0807 33.495 11.0538C33.7579 11.2762 34.0134 11.5071 34.261 11.7461C34.9256 13.8796 34.3774 15.437 34.21 15.8446C35.383 17.0992 36.096 18.6898 36.096 20.6612C36.096 27.5388 31.795 29.0622 27.701 29.5103C28.368 30.0703 28.943 31.1457 28.943 32.8259C28.943 34.4214 28.9328 35.8086 28.926 36.7362C28.9232 37.1225 28.9209 37.4291 28.9202 37.6379ZM46.4 23C46.4 35.7025 36.1026 46 23.4 46C10.6975 46 0.400024 35.7025 0.400024 23C0.400024 10.2975 10.6975 0 23.4 0C36.1026 0 46.4 10.2975 46.4 23Z" fill="#131515"/>
</svg>
