<svg width="45" height="46" viewBox="0 0 45 46" fill="none" xmlns="http://www.w3.org/2000/svg">
<path d="M22.2009 0.919922C10.0063 0.919922 0.120911 10.8053 0.120911 22.9999C0.120911 35.1945 10.0063 45.0799 22.2009 45.0799C34.3955 45.0799 44.2809 35.1945 44.2809 22.9999C44.2809 10.8053 34.3955 0.919922 22.2009 0.919922ZM16.7959 32.1516H12.3247V17.7628H16.7959V32.1516ZM14.5327 15.9964C13.1205 15.9964 12.2074 14.9959 12.2074 13.7585C12.2074 12.4958 13.1481 11.5252 14.5902 11.5252C16.0323 11.5252 16.9155 12.4958 16.9431 13.7585C16.9431 14.9959 16.0323 15.9964 14.5327 15.9964ZM33.1259 32.1516H28.6547V24.1775C28.6547 22.3214 28.0061 21.061 26.3892 21.061C25.1541 21.061 24.4204 21.9143 24.0961 22.7354C23.9765 23.0275 23.9466 23.4415 23.9466 23.8532V32.1493H19.4731V22.3513C19.4731 20.555 19.4156 19.0531 19.3558 17.7605H23.2405L23.4452 19.7592H23.5349C24.1237 18.8208 25.5658 17.4362 27.9785 17.4362C30.9202 17.4362 33.1259 19.4073 33.1259 23.6439V32.1516Z" fill="#131515"/>
</svg>
